<?xml version="1.0" encoding="utf-8"?>
<!-- Generator: Adobe Illustrator 16.0.0, SVG Export Plug-In . SVG Version: 6.00 Build 0)  -->
<!DOCTYPE svg PUBLIC "-//W3C//DTD SVG 1.1//EN" "http://www.w3.org/Graphics/SVG/1.1/DTD/svg11.dtd">
<svg version="1.1" id="图层_1" xmlns="http://www.w3.org/2000/svg" xmlns:xlink="http://www.w3.org/1999/xlink" x="0px" y="0px"
	 width="60px" height="60px" viewBox="0 0 60 60" enable-background="new 0 0 60 60" xml:space="preserve">
<g>
	<g>
		<path d="M29.392,52.089c-3.385-3.404-6.785-6.796-10.185-10.186c-3.904-3.889-7.813-7.771-11.875-11.813
			c0.97-1.04,1.752-1.928,2.587-2.764c6.36-6.371,12.735-12.729,19.096-19.1c0.677-0.678,1.409-1.34,1.92-2.134
			c0.789-1.224,0.766-2.563-0.28-3.64c-1.16-1.196-2.565-1.233-3.914-0.303c-0.683,0.472-1.258,1.108-1.852,1.7
			c-7.477,7.463-14.956,14.924-22.418,22.4c-3.275,3.283-3.284,4.148-0.082,7.358c7.46,7.478,14.936,14.942,22.414,22.404
			c0.677,0.674,1.361,1.365,2.136,1.916c1.248,0.89,2.512,0.712,3.598-0.325c1.1-1.052,1.193-2.355,0.494-3.622
			C30.637,53.267,29.982,52.681,29.392,52.089z M56.213,26.943c-0.598-0.032-1.196-0.01-1.796-0.01
			c-10.295,0-20.59-0.004-30.885,0.003c-3.958,0.001-5.508,0.869-5.376,3.094c0.132,2.267,1.355,3.035,5.531,2.936
			c5.145-0.12,10.295-0.029,15.442-0.027c1.796,0,3.592,0.001,5.388-0.002c3.949-0.003,7.901,0.055,11.851-0.035
			c2.429-0.056,3.69-1.22,3.63-3.031C59.939,28.072,58.659,27.076,56.213,26.943z"/>
	</g>
</g>
</svg>
