<?xml version="1.0" encoding="utf-8"?>
<!-- Generator: Adobe Illustrator 16.0.0, SVG Export Plug-In . SVG Version: 6.00 Build 0)  -->
<!DOCTYPE svg PUBLIC "-//W3C//DTD SVG 1.1//EN" "http://www.w3.org/Graphics/SVG/1.1/DTD/svg11.dtd">
<svg version="1.1" id="图层_1" xmlns="http://www.w3.org/2000/svg" xmlns:xlink="http://www.w3.org/1999/xlink" x="0px" y="0px"
	 width="60px" height="60px" viewBox="0 0 60 60" enable-background="new 0 0 60 60" xml:space="preserve">
<g>
	<g>
		<path d="M56.359,23.335c-1.87-2.115-4.357-3.718-7.125-4.611c-0.165-1.964-0.675-3.869-1.518-5.681
			c-0.996-2.139-2.414-4.052-4.213-5.687C39.879,4.063,35.083,2.25,29.999,2.25s-9.88,1.814-13.504,5.107
			c-1.801,1.635-3.217,3.549-4.213,5.688c-0.844,1.811-1.353,3.716-1.518,5.68c-2.767,0.893-5.254,2.496-7.126,4.611
			C1.292,25.989,0,29.353,0,32.807c0,2.067,0.443,4.069,1.318,5.947c0.83,1.782,2.01,3.376,3.507,4.735
			c3.001,2.727,6.969,4.229,11.172,4.229c1.146,0,2.075-1.014,2.075-2.264c0-1.249-0.929-2.263-2.075-2.263
			c-6.531,0-11.846-4.658-11.846-10.386c0-4.796,3.721-8.939,9.046-10.079c0.995-0.212,1.702-1.176,1.676-2.281
			c-0.003-0.12-0.01-0.218-0.016-0.29l-0.002-0.029c0.018-7.364,6.805-13.351,15.144-13.351s15.125,5.987,15.145,13.351
			c-0.002,0.009-0.002,0.019-0.003,0.029c-0.005,0.072-0.014,0.17-0.017,0.289c-0.027,1.106,0.682,2.07,1.676,2.284
			c5.326,1.14,9.047,5.283,9.047,10.078c0,5.728-5.314,10.387-11.848,10.387c-1.146,0-2.074,1.014-2.074,2.264
			c0,1.249,0.929,2.262,2.074,2.262c4.204,0,8.173-1.502,11.176-4.23c1.497-1.359,2.676-2.952,3.505-4.734
			c0.876-1.878,1.32-3.88,1.32-5.947C60,29.353,58.706,25.988,56.359,23.335z M31.913,18.458c-0.851-1.21-2.978-1.21-3.827,0
			l-7.908,11.241c-0.852,1.21,0.212,2.722,1.913,2.722h5.832v23.067c0,1.25,0.929,2.262,2.076,2.262
			c1.146,0,2.075-1.012,2.075-2.263V32.42h5.833c1.701,0,2.764-1.512,1.913-2.722L31.913,18.458z"/>
	</g>
</g>
</svg>
