<?xml version="1.0" encoding="utf-8"?>
<!-- Generator: Adobe Illustrator 16.0.0, SVG Export Plug-In . SVG Version: 6.00 Build 0)  -->
<!DOCTYPE svg PUBLIC "-//W3C//DTD SVG 1.1//EN" "http://www.w3.org/Graphics/SVG/1.1/DTD/svg11.dtd">
<svg version="1.1" id="图层_1" xmlns="http://www.w3.org/2000/svg" xmlns:xlink="http://www.w3.org/1999/xlink" x="0px" y="0px"
	 width="60px" height="60px" viewBox="0 0 60 60" enable-background="new 0 0 60 60" xml:space="preserve">
<path d="M11.473,60H6.95c-3.827,0-6.947-3.106-6.947-6.921V27.844c0-3.813,3.12-6.919,6.947-6.919h4.523
	c3.828,0,6.947,3.107,6.947,6.919v25.235C18.42,56.899,15.301,60,11.473,60L11.473,60z M6.95,25.538
	c-1.274,0-2.315,1.037-2.315,2.306v25.235c0,1.269,1.041,2.307,2.315,2.307h4.523c1.274,0,2.315-1.038,2.315-2.307V27.844
	c0-1.269-1.041-2.306-2.315-2.306H6.95z M32.186,60h-4.523c-3.828,0-6.947-3.106-6.947-6.921V6.919C20.715,3.107,23.834,0,27.663,0
	h4.523c3.828,0,6.947,3.107,6.947,6.919v46.168C39.133,56.899,36.021,60,32.186,60L32.186,60z M27.67,4.613
	c-1.274,0-2.316,1.038-2.316,2.306v46.168c0,1.269,1.042,2.306,2.316,2.306h4.523c1.273,0,2.316-1.037,2.316-2.306V6.919
	c0-1.269-1.043-2.306-2.316-2.306H27.67z M53.051,60h-4.523c-3.828,0-6.947-3.106-6.947-6.921V18.554c0-3.813,3.119-6.92,6.947-6.92
	h4.523c3.828,0,6.947,3.107,6.947,6.92v34.525C59.998,56.899,56.879,60,53.051,60L53.051,60z M48.527,16.254
	c-1.273,0-2.316,1.039-2.316,2.307v34.527c0,1.269,1.043,2.306,2.316,2.306h4.523c1.273,0,2.314-1.037,2.314-2.306V18.561
	c0-1.269-1.041-2.307-2.314-2.307H48.527z M48.527,16.254"/>
</svg>
