<?xml version="1.0" encoding="utf-8"?>
<!-- Generator: Adobe Illustrator 16.0.0, SVG Export Plug-In . SVG Version: 6.00 Build 0)  -->
<!DOCTYPE svg PUBLIC "-//W3C//DTD SVG 1.1//EN" "http://www.w3.org/Graphics/SVG/1.1/DTD/svg11.dtd">
<svg version="1.1" id="图层_1" xmlns="http://www.w3.org/2000/svg" xmlns:xlink="http://www.w3.org/1999/xlink" x="0px" y="0px"
	 width="60px" height="60px" viewBox="0 0 60 60" enable-background="new 0 0 60 60" xml:space="preserve">
<path fill="#FABC27"  d="M30.002,0C13.433,0,0,13.429,0,30c0,16.568,13.433,30,30.002,30C46.568,60,60,46.568,60,30C60,13.429,46.568,0,30.002,0
	L30.002,0z M45.005,33.311H29.077c-0.338,0-0.662-0.067-0.958-0.191c-0.88-0.374-1.5-1.249-1.5-2.266v-15.93
	c0-1.359,1.101-2.46,2.458-2.46c1.361,0,2.46,1.101,2.46,2.46v13.468h13.468c1.36,0,2.461,1.101,2.461,2.459
	C47.466,32.21,46.365,33.311,45.005,33.311L45.005,33.311z M45.005,33.311"/>
</svg>
