<?xml version="1.0" encoding="utf-8"?>
<!-- Generator: Adobe Illustrator 16.0.0, SVG Export Plug-In . SVG Version: 6.00 Build 0)  -->
<!DOCTYPE svg PUBLIC "-//W3C//DTD SVG 1.1//EN" "http://www.w3.org/Graphics/SVG/1.1/DTD/svg11.dtd">
<svg version="1.1" id="图层_1" xmlns="http://www.w3.org/2000/svg" xmlns:xlink="http://www.w3.org/1999/xlink" x="0px" y="0px"
	 width="60px" height="60px" viewBox="0 0 60 60" enable-background="new 0 0 60 60" xml:space="preserve">
<path d="M49.218,0H10.782C4.827,0,0,4.826,0,10.781v38.436C0,55.172,4.827,60,10.782,60h38.436C55.172,60,60,55.172,60,49.217
	V10.781C60,4.826,55.172,0,49.218,0z M57.375,47.535c0,5.434-4.406,9.84-9.839,9.84H12.463c-5.434,0-9.838-4.406-9.838-9.84V12.463
	c0-5.434,4.404-9.838,9.838-9.838h35.073c5.433,0,9.839,4.404,9.839,9.838V47.535z"/>
</svg>
