<?xml version="1.0" encoding="iso-8859-1"?>
<!-- Generator: Adobe Illustrator 19.0.0, SVG Export Plug-In . SVG Version: 6.00 Build 0)  -->
<svg version="1.1" id="Layer_1" xmlns="http://www.w3.org/2000/svg" xmlns:xlink="http://www.w3.org/1999/xlink" x="0px" y="0px"
	 viewBox="0 0 512 512" style="enable-background:new 0 0 512 512;" xml:space="preserve">
<g>
	<g>
		<g>
			<path d="M128,266.667h117.333V384c0,5.891,4.776,10.667,10.667,10.667c5.891,0,10.667-4.776,10.667-10.667V266.667H384
				c5.891,0,10.667-4.776,10.667-10.667c0-5.891-4.776-10.667-10.667-10.667H266.667V128c0-5.891-4.776-10.667-10.667-10.667
				c-5.891,0-10.667,4.776-10.667,10.667v117.333H128c-5.891,0-10.667,4.776-10.667,10.667
				C117.333,261.891,122.109,266.667,128,266.667z"/>
			<path d="M501.333,0H10.667C4.776,0,0,4.776,0,10.667v490.667C0,507.224,4.776,512,10.667,512h490.667
				c5.891,0,10.667-4.776,10.667-10.667V10.667C512,4.776,507.224,0,501.333,0z M490.667,490.667H21.333V21.333h469.333V490.667z"/>
		</g>
	</g>
</g>
<g>
</g>
<g>
</g>
<g>
</g>
<g>
</g>
<g>
</g>
<g>
</g>
<g>
</g>
<g>
</g>
<g>
</g>
<g>
</g>
<g>
</g>
<g>
</g>
<g>
</g>
<g>
</g>
<g>
</g>
</svg>
