<?xml version="1.0" encoding="utf-8"?>
<!-- Generator: Adobe Illustrator 16.0.0, SVG Export Plug-In . SVG Version: 6.00 Build 0)  -->
<!DOCTYPE svg PUBLIC "-//W3C//DTD SVG 1.1//EN" "http://www.w3.org/Graphics/SVG/1.1/DTD/svg11.dtd">
<svg version="1.1" id="图层_1" xmlns="http://www.w3.org/2000/svg" xmlns:xlink="http://www.w3.org/1999/xlink" x="0px" y="0px"
	 width="40px" height="40px" viewBox="0 0 40 40" enable-background="new 0 0 40 40" xml:space="preserve">
<g>
	<g>
		<path fill="#737373" d="M38.995,19.976V8.762c0-2.398-1.905-4.353-4.243-4.353h-4.777V1.975C29.975,1.438,29.09,1,28.567,1
			c-0.523,0-1.408,0.438-1.408,0.975v2.435H13.318V1.975C13.318,1.438,12.434,1,11.91,1c-0.522,0-1.408,0.438-1.408,0.975v2.435
			H5.244C2.905,4.409,1,6.363,1,8.762v25.886C1,37.045,2.905,39,5.244,39h29.545c0.001-0.008-0.002-0.025-0.002-0.034
			c2.323-0.019,4.208-1.962,4.213-4.35V20C39,19.991,38.995,19.984,38.995,19.976z M36.299,33.93c0,1.325-0.938,2.289-2.229,2.289
			l0.009,0.036H5.93c-1.292,0-2.229-0.964-2.229-2.289V9.448c0-1.325,0.937-2.289,2.229-2.289h4.572v2.123
			c0,0.537,0.885,0.976,1.408,0.976c0.523,0,1.408-0.438,1.408-0.976V7.159h13.841v2.123c0,0.537,0.885,0.976,1.408,0.976
			c0.522,0,1.407-0.438,1.407-0.976V7.159h4.096c1.291,0,2.229,0.964,2.229,2.289V33.93z M21.432,16.107
			c-0.914,0-1.659,0.764-1.659,1.715c0,0.946,0.739,1.716,1.659,1.716c0.914,0,1.658-0.764,1.658-1.716
			C23.09,16.871,22.346,16.102,21.432,16.107z M11.926,14.151c-2.62,0-5.209,2.187-5.209,4.874v6.818
			c0,2.687,2.59,4.873,5.209,4.873c2.619,0,5.094-2.182,5.094-4.873v-6.818C17.02,16.338,14.545,14.151,11.926,14.151z
			 M14.504,25.546c0,1.488-1.178,2.696-2.631,2.696c-1.452,0-2.63-1.208-2.63-2.696v-6.284c0-1.488,1.179-2.695,2.63-2.695
			c1.453,0,2.631,1.212,2.631,2.695V25.546z M21.432,25.84c-0.914,0-1.659,0.764-1.659,1.715c0,0.945,0.739,1.715,1.659,1.715
			c0.914,0,1.658-0.764,1.658-1.715S22.346,25.834,21.432,25.84z M30.854,14.44c-0.199-0.204-0.657-0.295-1.099-0.281
			c-0.009,0-0.02-0.003-0.028-0.003c-0.034,0-0.07,0.007-0.105,0.01c-0.335,0.028-0.645,0.117-0.797,0.274l-2.966,2.466
			c-0.372,0.382-0.601,1.453-0.229,1.835c0.187,0.191,0.776,0.628,1.018,0.628c0.246,0,0.488-0.094,0.674-0.284l1.227-1.015v11.672
			c0,0.536,0.771,0.975,1.294,0.975c0.528,0,1.294-0.433,1.294-0.969V15.131c0-0.081-0.025-0.158-0.061-0.233
			C31.029,14.717,30.962,14.552,30.854,14.44z"/>
	</g>
</g>
</svg>
