<?xml version="1.0" encoding="utf-8"?>
<!-- Generator: Adobe Illustrator 16.0.0, SVG Export Plug-In . SVG Version: 6.00 Build 0)  -->
<!DOCTYPE svg PUBLIC "-//W3C//DTD SVG 1.1//EN" "http://www.w3.org/Graphics/SVG/1.1/DTD/svg11.dtd">
<svg version="1.1" id="图层_1" xmlns="http://www.w3.org/2000/svg" xmlns:xlink="http://www.w3.org/1999/xlink" x="0px" y="0px"
	 width="40px" height="40px" viewBox="0 0 40 40" enable-background="new 0 0 40 40" xml:space="preserve">
<path fill="#737373" d="M5.125,25.486c-0.97,0-1.465,0.564-1.465,1.528v10.457C3.66,38.436,4.156,39,5.125,39
	c0.969,0,1.465-0.564,1.465-1.528V27.015C6.59,26.051,6.094,25.486,5.125,25.486L5.125,25.486z M15.184,14.331
	c-0.969,0-1.465,0.564-1.465,1.527v21.614c0,0.964,0.496,1.528,1.465,1.528c0.97,0,1.465-0.564,1.465-1.528V15.858
	C16.649,14.895,16.154,14.331,15.184,14.331L15.184,14.331z M35.304,14.331c-0.969,0-1.465,0.564-1.465,1.527v21.614
	c0,0.964,0.496,1.528,1.465,1.528c0.971,0,1.466-0.564,1.466-1.528V15.858C36.77,14.895,36.274,14.331,35.304,14.331L35.304,14.331z
	 M25.244,22.697c-0.969,0-1.465,0.564-1.465,1.527v13.247c0,0.964,0.496,1.528,1.465,1.528s1.465-0.564,1.465-1.528V24.225
	C26.709,23.262,26.213,22.697,25.244,22.697L25.244,22.697z M37.475,1h-5.68c-0.969,0-1.755,0.382-1.755,1.344
	c0,0.963,0.786,1.456,1.755,1.456h2.236l-8.591,9.076L16.89,4.162c-0.655-0.649-1.708-0.674-2.392-0.055
	c-0.025,0.021-0.048,0.043-0.072,0.066L1.512,17.15c-0.682,0.678-0.682,1.347,0,2.024c0.683,0.679,1.355,0.679,2.038,0L15.664,6.924
	l8.425,8.585c0.031,0.036,0.062,0.07,0.096,0.104c0.248,0.251,0.566,0.419,0.912,0.485l0.025,0.004l0.05,0.009
	c0.531,0.081,1.068-0.089,1.456-0.458l0.026-0.025l9.572-10.11v2.096c0,0.963,0.496,1.6,1.465,1.6c0.97,0,1.309-0.781,1.309-1.744
	V2.561C39,1.598,38.443,1,37.475,1L37.475,1z M37.475,1"/>
</svg>
